# xmcd
#
# Track frame offsets: 
#        150
#        24172
#        48155
#        74212
#        101470
#        129107
#        159227
#        188600
#        213205
#        241122
#
# Disc length: 3540 seconds
#
# Revision: 2
# Processed by: cddbd v1.5.2PL0 Copyright (c) Steve Scherf et al.
# Submitted via: ExactAudioCopy v0.99pb5
#
DISCID=730dd20a
DTITLE=Antony  Santos - Me Muero De Amor
DYEAR=1998
DGENRE=Bachata
TTITLE0=Te Dare una Robaita
TTITLE1=Me Voy Manana
TTITLE2=Te Di Mi Amor
TTITLE3=Si Yo Fuera
TTITLE4=Ya No Me Queres Querer
TTITLE5=Me Voy Para Otro Lugar
TTITLE6=El Ombliguito
TTITLE7=Me Quiere Dejar
TTITLE8=El Quilin Quilian
TTITLE9=Dime Que Te Pasa
EXTD=YEAR: 1998
EXTT0=
EXTT1=
EXTT2=
EXTT3=
EXTT4=
EXTT5=
EXTT6=
EXTT7=
EXTT8=
EXTT9=
PLAYORDER=
